# Blender v2.78 (sub 0) OBJ File: ''
# www.blender.org
o Cube
v 1.000000 0.021259 -1.000000
v 1.000000 0.021259 1.000000
v -1.000000 0.021259 1.000000
v -1.000000 0.021259 -1.000000
v 0.475809 2.021259 -0.475809
v 0.241147 2.525259 0.745148
v -0.241147 2.255921 0.475809
v -0.475809 2.021259 -0.475809
v 1.000000 2.021259 -0.999999
v 0.999999 2.021259 1.000001
v -1.000000 2.021259 -1.000000
v -1.000000 2.021259 1.000000
v 0.475809 3.465409 -0.475809
v 1.072669 3.500757 1.037322
v -0.475809 3.465409 -0.475809
v -0.241147 3.230747 0.475809
v 0.475809 2.021259 0.475809
v -0.475809 2.021259 0.475809
v 0.475809 3.465409 0.475809
v -0.475809 3.465409 0.475809
v 0.241146 2.525259 1.646952
v -0.241148 2.255921 1.916290
v 0.533320 2.961409 1.354778
v -0.241148 3.230747 1.916290
v 0.241147 2.255921 0.475809
v 0.241147 3.230747 0.475809
v 0.241146 2.255921 1.916291
v 0.241146 3.230747 1.916291
v 2.821070 2.525259 0.745149
v 1.989548 3.500757 1.037323
v 2.821070 2.525259 1.646953
v 2.528896 2.961409 1.354779
v 0.241146 2.961409 1.646952
v 0.241147 2.961409 0.745148
v 2.821070 2.961409 1.646953
v 2.821070 2.961409 0.745149
v 0.533320 4.402611 1.354778
v 1.185919 3.863262 0.924073
v 2.528896 4.402611 1.354779
v 1.876298 3.863262 0.924073
v 0.533320 2.961409 1.037322
v 2.528896 2.961409 1.037323
v 0.533320 4.402611 1.037322
v 2.528896 4.402611 1.037323
v 1.072670 3.500757 -2.606947
v 1.989549 3.500757 -2.606947
v 1.185920 3.863262 -2.493697
v 1.876299 3.863262 -2.493697
v 1.072669 3.863262 1.037322
v 1.989548 3.863262 1.037323
v 1.072670 3.863262 -2.606947
v 1.989549 3.863262 -2.606947
v 1.185919 3.731482 0.924073
v 1.876298 3.731482 0.924073
v 1.185920 3.731482 -2.493697
v 1.876299 3.731482 -2.493697
vt 0.2154 0.6473
vt 0.0005 0.4324
vt 0.0005 0.6473
vt 0.4757 0.7138
vt 0.6305 0.6091
vt 0.4757 0.6091
vt 0.2164 0.2154
vt 0.4314 0.0005
vt 0.4314 0.2154
vt 0.0005 0.2154
vt 0.2154 0.0005
vt 0.2154 0.2154
vt 0.6473 0.0005
vt 0.4324 0.2154
vt 0.6473 0.2154
vt 0.4314 0.4314
vt 0.2164 0.2164
vt 0.2164 0.4314
vt 0.0568 0.3750
vt 0.2154 0.4314
vt 0.0005 0.4314
vt 0.0005 0.2164
vt 0.0568 0.2728
vt 0.1591 0.2728
vt 0.1591 0.3750
vt 0.2154 0.2164
vt 0.5282 0.7149
vt 0.6305 0.8171
vt 0.5282 0.8171
vt 0.7541 0.1557
vt 0.8564 0.0005
vt 0.8564 0.1557
vt 0.1557 0.7541
vt 0.0005 0.8564
vt 0.1557 0.8564
vt 0.8564 0.1557
vt 0.7541 0.0005
vt 0.1305 0.7793
vt 0.1557 0.8564
vt 0.1305 0.8311
vt 0.3464 0.8673
vt 0.3716 0.9444
vt 0.3464 0.9191
vt 0.2417 0.8673
vt 0.3716 0.8421
vt 0.0257 0.7793
vt 0.1563 0.7531
vt 0.2081 0.6483
vt 0.2081 0.7531
vt 0.3727 0.8421
vt 0.5275 0.8939
vt 0.3727 0.8939
vt 0.8863 0.9454
vt 0.6091 0.9922
vt 0.8863 0.9922
vt 0.0005 0.9092
vt 0.1553 0.8574
vt 0.0005 0.8574
vt 0.7241 0.1264
vt 0.6483 0.1553
vt 0.6773 0.1264
vt 0.1264 0.7241
vt 0.1553 0.6483
vt 0.1553 0.7531
vt 0.0295 0.6773
vt 0.1264 0.6773
vt 0.7531 0.0005
vt 0.7531 0.1553
vt 0.5335 0.8181
vt 0.6305 0.8650
vt 0.5335 0.8650
vt 0.7310 0.5847
vt 0.8279 0.8620
vt 0.8279 0.5847
vt 0.9256 0.2154
vt 0.6483 0.1686
vt 0.9256 0.1686
vt 0.6081 0.9843
vt 0.2164 0.9454
vt 0.6081 0.9454
vt 0.6970 0.8549
vt 0.6315 0.8863
vt 0.6629 0.8549
vt 0.4623 0.7756
vt 0.4937 0.8411
vt 0.4623 0.8097
vt 0.6970 0.6405
vt 0.7284 0.8863
vt 0.2478 0.7756
vt 0.4937 0.7442
vt 0.8403 0.2164
vt 0.8062 0.4309
vt 0.8062 0.2164
vt 0.8755 0.3713
vt 0.8413 0.2164
vt 0.8413 0.3713
vt 0.2164 0.5873
vt 0.4309 0.4324
vt 0.4309 0.5873
vt 0.8289 0.7396
vt 0.8631 0.5847
vt 0.8631 0.7396
vt 0.2744 0.6852
vt 0.4309 0.7432
vt 0.3729 0.6852
vt 0.3729 0.6462
vt 0.2164 0.5883
vt 0.2744 0.6462
vt 0.4309 0.5883
vt 0.2164 0.7432
vt 0.4713 0.6091
vt 0.4324 0.7076
vt 0.4713 0.7076
vt 0.5837 0.9853
vt 0.2164 0.9995
vt 0.2164 0.9853
vt 0.7643 0.9054
vt 0.3727 0.9444
vt 0.7643 0.9444
vt 0.5319 0.2164
vt 0.6305 0.6081
vt 0.6305 0.2164
vt 0.5187 0.5959
vt 0.4324 0.6081
vt 0.4446 0.5959
vt 0.7178 0.5959
vt 0.6315 0.6081
vt 0.6436 0.5959
vt 0.7178 0.2286
vt 0.7300 0.6081
vt 0.5187 0.2286
vt 0.5309 0.6081
vt 0.8052 0.2164
vt 0.7310 0.5837
vt 0.7310 0.2164
vt 0.5272 0.7149
vt 0.4530 0.7290
vt 0.4530 0.7149
vt 0.6315 0.8873
vt 0.9988 0.9015
vt 0.9988 0.8873
vt 0.7310 0.8630
vt 0.8052 0.8772
vt 0.8052 0.8630
vt 0.2154 0.4324
vt 0.6305 0.7138
vt 0.2164 0.0005
vt 0.0005 0.0005
vt 0.4324 0.0005
vt 0.4314 0.2164
vt 0.6305 0.7149
vt 0.0005 0.7541
vt 0.8564 0.0005
vt 0.2164 0.8421
vt 0.1563 0.6483
vt 0.5275 0.8421
vt 0.6091 0.9454
vt 0.1553 0.9092
vt 0.0005 0.6483
vt 0.7241 0.0295
vt 0.6305 0.8181
vt 0.7310 0.8620
vt 0.6483 0.2154
vt 0.2164 0.9843
vt 0.7284 0.6091
vt 0.2164 0.7442
vt 0.8403 0.4309
vt 0.8755 0.2164
vt 0.2164 0.4324
vt 0.8289 0.5847
vt 0.4324 0.6091
vt 0.5837 0.9995
vt 0.3727 0.9054
vt 0.5319 0.6081
vt 0.7300 0.2164
vt 0.5309 0.2164
vt 0.8052 0.5837
vt 0.5272 0.7290
vt 0.6315 0.9015
vt 0.7310 0.8772
vn 0.0000 -1.0000 0.0000
vn -1.0000 0.0000 -0.0000
vn 1.0000 -0.0000 0.0000
vn 0.0000 -0.0000 1.0000
vn 0.0000 0.0000 -1.0000
vn 0.0000 1.0000 -0.0000
s off
f 2/1/1 4/2/1 1/3/1
f 7/4/2 24/5/2 16/6/2
f 9/7/3 2/8/3 1/9/3
f 10/10/4 3/11/4 2/12/4
f 3/13/2 11/14/2 4/15/2
f 1/16/5 11/17/5 9/18/5
f 5/19/6 10/20/6 9/21/6
f 5/19/6 11/22/6 8/23/6
f 18/24/6 10/20/6 17/25/6
f 8/23/6 12/26/6 18/24/6
f 15/27/6 19/28/6 13/29/6
f 5/30/3 19/31/3 17/32/3
f 18/33/2 15/34/2 8/35/2
f 8/36/5 13/37/5 5/30/5
f 7/38/4 17/39/4 25/40/4
f 26/41/4 20/42/4 16/43/4
f 25/44/4 19/45/4 26/41/4
f 16/46/4 18/33/4 7/38/4
f 27/47/4 24/48/4 22/49/4
f 16/50/6 28/51/6 26/52/6
f 34/53/5 29/54/5 6/55/5
f 25/56/1 22/57/1 7/58/1
f 6/59/3 26/60/3 34/61/3
f 21/62/3 28/63/3 27/64/3
f 34/65/3 28/63/3 33/66/3
f 6/59/3 27/67/3 25/68/3
f 36/69/3 31/70/3 29/71/3
f 6/72/1 31/73/1 21/74/1
f 21/75/4 35/76/4 33/77/4
f 30/78/3 52/79/3 50/80/3
f 41/81/6 33/82/6 23/83/6
f 32/84/6 36/85/6 42/86/6
f 42/87/6 34/88/6 41/81/6
f 23/89/6 35/90/6 32/84/6
f 37/91/6 44/92/6 43/93/6
f 23/94/2 43/95/2 41/96/2
f 32/97/4 37/98/4 23/99/4
f 42/100/3 39/101/3 32/102/3
f 30/103/5 41/104/5 14/105/5
f 49/106/5 44/107/5 50/108/5
f 49/106/5 41/104/5 43/109/5
f 50/108/5 42/110/5 30/103/5
f 45/111/5 52/112/5 46/113/5
f 38/114/3 55/115/3 47/116/3
f 49/117/2 45/118/2 14/119/2
f 14/120/1 46/121/1 30/122/1
f 38/123/6 50/124/6 40/125/6
f 48/126/6 51/127/6 47/128/6
f 40/129/6 52/130/6 48/126/6
f 47/131/6 49/132/6 38/123/6
f 54/133/6 55/134/6 53/135/6
f 47/136/4 56/137/4 48/138/4
f 48/139/2 54/140/2 40/141/2
f 40/142/5 53/143/5 38/144/5
f 2/1/1 3/145/1 4/2/1
f 7/4/2 22/146/2 24/5/2
f 9/7/3 10/147/3 2/8/3
f 10/10/4 12/148/4 3/11/4
f 3/13/2 12/149/2 11/14/2
f 1/16/5 4/150/5 11/17/5
f 5/19/6 17/25/6 10/20/6
f 5/19/6 9/21/6 11/22/6
f 18/24/6 12/26/6 10/20/6
f 8/23/6 11/22/6 12/26/6
f 15/27/6 20/151/6 19/28/6
f 5/30/3 13/37/3 19/31/3
f 18/33/2 20/152/2 15/34/2
f 8/36/5 15/153/5 13/37/5
f 7/38/4 18/33/4 17/39/4
f 26/41/4 19/45/4 20/42/4
f 25/44/4 17/154/4 19/45/4
f 16/46/4 20/152/4 18/33/4
f 27/47/4 28/155/4 24/48/4
f 16/50/6 24/156/6 28/51/6
f 34/53/5 36/157/5 29/54/5
f 25/56/1 27/158/1 22/57/1
f 6/59/3 25/68/3 26/60/3
f 21/62/3 33/66/3 28/63/3
f 34/65/3 26/159/3 28/63/3
f 6/59/3 21/160/3 27/67/3
f 36/69/3 35/161/3 31/70/3
f 6/72/1 29/162/1 31/73/1
f 21/75/4 31/163/4 35/76/4
f 30/78/3 46/164/3 52/79/3
f 41/81/6 34/88/6 33/82/6
f 32/84/6 35/90/6 36/85/6
f 42/87/6 36/165/6 34/88/6
f 23/89/6 33/166/6 35/90/6
f 37/91/6 39/167/6 44/92/6
f 23/94/2 37/168/2 43/95/2
f 32/97/4 39/169/4 37/98/4
f 42/100/3 44/170/3 39/101/3
f 30/103/5 42/110/5 41/104/5
f 49/106/5 43/109/5 44/107/5
f 49/106/5 14/105/5 41/104/5
f 50/108/5 44/107/5 42/110/5
f 45/111/5 51/171/5 52/112/5
f 38/114/3 53/172/3 55/115/3
f 49/117/2 51/173/2 45/118/2
f 14/120/1 45/174/1 46/121/1
f 38/123/6 49/132/6 50/124/6
f 48/126/6 52/130/6 51/127/6
f 40/129/6 50/175/6 52/130/6
f 47/131/6 51/176/6 49/132/6
f 54/133/6 56/177/6 55/134/6
f 47/136/4 55/178/4 56/137/4
f 48/139/2 56/179/2 54/140/2
f 40/142/5 54/180/5 53/143/5
